<svg xmlns="http://www.w3.org/2000/svg" width="1920" height="1080" version="1.0" viewBox="0 0 1440 810"><defs><clipPath id="c"><path d="M0 0h1432v810H0z"/></clipPath><clipPath id="d"><path d="M590 634h87v148.918h-87Zm0 0"/></clipPath><clipPath id="e"><path d="M578 663h41v119.918h-41Zm0 0"/></clipPath><filter id="a" width="100%" height="100%" x="0%" y="0%"><feColorMatrix color-interpolation-filters="sRGB" values="0 0 0 0 1 0 0 0 0 1 0 0 0 0 1 0 0 0 1 0"/></filter><mask id="b"><g filter="url(#a)"><path fill-opacity=".5" d="M-144-81h1728v972H-144z"/></g></mask></defs><g mask="url(#b)"><g fill="#ff3131" clip-path="url(#c)" transform="translate(4)"><path d="M288.5 590.382v-96.156H22.967v-80.61l243.344-346.89h127.953v331.36h59.172v96.14h-59.172v96.156ZM144.264 398.085h144.234v-214.5ZM715.263 596.304c-38.469 0-71.015-6.898-97.64-20.703q-39.939-20.72-65.094-57.328-25.143-36.608-36.235-85.047c-7.398-32.3-11.093-66.695-11.093-103.188 0-37.476 3.82-72.488 11.468-105.03q11.467-48.811 36.985-85.798 25.512-36.982 65.812-57.687 40.313-20.72 97.266-20.719c39.445 0 72.61 7.152 99.484 21.453q40.312 21.457 65.078 59.547 24.779 38.096 35.5 86.172 10.735 48.065 10.735 100.578-.001 54-11.094 102.078-11.096 48.064-35.5 85.422-24.408 37.346-65.094 58.797c-27.117 14.305-60.64 21.453-100.578 21.453m0-97.64q36.232 0 57.313-16.641 21.074-16.641 31.797-43.266 10.734-26.624 14.062-55.844 3.328-29.215 3.328-54.359 0-23.671-3.328-52.875-3.328-29.217-13.687-55.469-10.361-26.264-31.063-43.281-20.707-17.016-56.203-17.016c-23.68 0-42.668 5.555-56.969 16.657q-21.438 16.64-32.172 43.265-10.72 26.627-14.422 55.469-3.689 28.845-3.687 53.25 0 24.41 3.328 54c2.219 19.719 6.773 38.453 13.672 56.203q10.357 26.625 31.437 43.266 21.075 16.64 56.594 16.64M1247.789 590.382v-96.156H982.257v-80.61l243.344-346.89h127.953v331.36h59.172v96.14h-59.172v96.156Zm-144.235-192.297h144.235v-214.5Zm0 0"/></g></g><path fill="#7a8593" d="m885.41 267.074 11.313-8.344 82.867 112.313-11.313 8.348Zm0 0"/><path fill="#535a63" d="M968.273 380.48q-.081-.002-.164-.015c-.293-.043-.55-.2-.726-.438l-82.867-112.312a1.09 1.09 0 0 1-.203-.82c.042-.29.199-.551.437-.723l11.309-8.348a1.11 1.11 0 0 1 1.546.23l82.868 112.317c.363.488.257 1.18-.235 1.543l-11.308 8.348c-.192.14-.422.215-.657.215ZM886.95 267.293l81.555 110.535 9.535-7.031-81.559-110.535Zm0 0"/><path fill="#7a8593" d="M920.797 227.938q0 2.726-.27 5.44a56 56 0 0 1-2.125 10.677 55.2 55.2 0 0 1-4.164 10.054 54 54 0 0 1-2.8 4.676 56 56 0 0 1-3.247 4.375 55 55 0 0 1-3.66 4.04 56 56 0 0 1-4.035 3.66 55 55 0 0 1-4.379 3.242 56 56 0 0 1-4.672 2.804 55.641 55.641 0 0 1-15.344 5.488 56 56 0 0 1-5.386.801 56 56 0 0 1-5.445.266q-2.727-.001-5.442-.266a56 56 0 0 1-10.676-2.125 55.6 55.6 0 0 1-14.73-6.968 55.3 55.3 0 0 1-12.07-10.942 54 54 0 0 1-3.247-4.375 54 54 0 0 1-2.8-4.676 55.233 55.233 0 0 1-5.492-15.34 56 56 0 0 1-1.067-10.832q0-2.729.27-5.44c.175-1.813.445-3.61.797-5.392a55.6 55.6 0 0 1 5.492-15.343 55 55 0 0 1 2.8-4.672 54 54 0 0 1 3.247-4.375 55 55 0 0 1 7.695-7.7 56 56 0 0 1 4.375-3.245 55.564 55.564 0 0 1 14.73-6.965 55.865 55.865 0 0 1 10.676-2.125 56 56 0 0 1 5.442-.266c1.82 0 3.632.09 5.445.266a55.6 55.6 0 0 1 29.781 12.336 56 56 0 0 1 4.035 3.66 55.576 55.576 0 0 1 12.04 18.012 55 55 0 0 1 1.831 5.132q.797 2.608 1.325 5.285a55.5 55.5 0 0 1 1.07 10.833m0 0"/><path fill="#535a63" d="M865.39 284.578c-2.843 0-5.702-.215-8.566-.648-14.957-2.254-28.14-10.2-37.12-22.371-8.981-12.172-12.684-27.114-10.427-42.07 2.254-14.958 10.2-28.137 22.375-37.118 12.172-8.98 27.11-12.687 42.067-10.43 14.957 2.258 28.14 10.204 37.12 22.375 8.981 12.172 12.684 27.114 10.427 42.07-2.254 14.958-10.203 28.137-22.375 37.118-9.84 7.262-21.493 11.074-33.5 11.074m-.234-111.074c-11.539 0-22.734 3.664-32.195 10.64-11.7 8.633-19.332 21.301-21.5 35.676-2.172 14.371 1.387 28.73 10.02 40.426 8.628 11.695 21.296 19.332 35.671 21.5 2.75.414 5.504.621 8.235.621 11.539 0 22.734-3.664 32.195-10.64 11.695-8.633 19.332-21.301 21.5-35.672 2.172-14.375-1.39-28.735-10.02-40.43-8.632-11.695-21.296-19.332-35.671-21.5a55 55 0 0 0-8.235-.621m0 0"/><path fill="#ff3131" d="M905.883 228.137a40.45 40.45 0 0 0-7.934-24.313c-13.316-18.047-38.738-21.883-56.785-8.566a40.44 40.44 0 0 0-14.754 20.887l79.473 11.988Zm0 0"/><path fill="#535a63" d="M905.883 229.242c-.059 0-.113-.008-.168-.015l-79.469-11.989a1.102 1.102 0 0 1-.895-1.41c2.618-8.656 7.86-16.074 15.157-21.457 8.965-6.617 19.969-9.344 30.988-7.684 11.016 1.665 20.727 7.516 27.34 16.481 5.383 7.297 8.2 15.93 8.148 24.973a1.102 1.102 0 0 1-1.102 1.098Zm-78.024-13.996 76.907 11.606c-.211-8.098-2.86-15.805-7.707-22.372-6.262-8.492-15.461-14.035-25.895-15.605-10.434-1.574-20.855 1.008-29.344 7.273-6.566 4.844-11.37 11.426-13.96 19.098m0 0"/><path fill="#ff3131" d="M824.66 227.734a40.44 40.44 0 0 0 7.934 24.313c13.316 18.047 38.738 21.883 56.785 8.566a40.43 40.43 0 0 0 14.754-20.886l-79.473-11.989Zm0 0"/><path fill="#535a63" d="M865.36 269.66c-2.094 0-4.204-.16-6.313-.476-11.016-1.66-20.727-7.516-27.34-16.48-5.387-7.294-8.203-15.93-8.152-24.974a1.1 1.1 0 0 1 1.273-1.082l79.469 11.989c.32.047.598.23.77.5.171.273.214.605.124.91-2.62 8.656-7.859 16.074-15.152 21.457-7.25 5.348-15.836 8.156-24.68 8.156m-39.583-40.637c.211 8.094 2.864 15.801 7.707 22.368 6.266 8.492 15.461 14.035 25.895 15.609s20.855-1.012 29.348-7.277c6.562-4.84 11.367-11.426 13.96-19.098Zm0 0"/><path fill="#ff3131" d="M892.234 512.996v-.082l-.011.04q-.007-.018-.008-.04v.082q-1.565 5.66-7.219 8.098 5.655 2.438 7.219 8.097v.079q.007-.017.008-.04a.1.1 0 0 1 .011.04v-.079q1.565-5.66 7.22-8.097-5.655-2.437-7.22-8.098M472.383 316.371v-.082l-.012.043-.012-.043v.082q-1.56 5.66-7.214 8.098 5.655 2.438 7.214 8.097v.082l.012-.043.012.043v-.082q1.56-5.66 7.215-8.097-5.656-2.437-7.215-8.098M930.914 645.836v-.082l-.012.043c-.004-.016-.007-.027-.007-.043v.082q-1.565 5.66-7.22 8.098 5.655 2.437 7.22 8.097v.082q.006-.02.007-.043a.1.1 0 0 1 .012.043v-.082c1.043-3.773 3.445-6.472 7.219-8.097-3.774-1.625-6.176-4.325-7.219-8.098M845.258 595.703v-.16c-.008.027-.016.05-.024.082-.007-.031-.015-.055-.023-.082v.16q-3.117 11.325-14.434 16.2c7.543 3.245 12.352 8.648 14.434 16.195v.16l.023-.078.024.078v-.16c2.078-7.547 6.89-12.95 14.433-16.196-7.543-3.25-12.351-8.648-14.433-16.199M523.387 414.414v-.16l-.024.082c-.004-.027-.015-.055-.02-.082v.16q-3.122 11.325-14.437 16.2c7.543 3.245 12.352 8.648 14.438 16.195v.164c.004-.032.015-.055.02-.082l.023.082v-.164c2.082-7.547 6.89-12.95 14.433-16.196-7.543-3.25-12.351-8.648-14.433-16.199M591.809 231.945v-.164c-.008.031-.016.055-.02.082-.008-.027-.016-.05-.023-.082v.164c-2.082 7.547-6.895 12.95-14.434 16.196q11.31 4.874 14.434 16.199v.16l.023-.082a1 1 0 0 0 .02.082v-.16q3.124-11.325 14.433-16.2c-7.539-3.245-12.351-8.648-14.433-16.195m0 0"/><path fill="#fff" d="M828.578 337.523a53.8 53.8 0 0 1-1.148 11.043 54 54 0 0 1-1.422 5.391 55 55 0 0 1-1.973 5.227 57 57 0 0 1-2.504 5.023 57 57 0 0 1-3.011 4.766 57 57 0 0 1-3.493 4.46 57 57 0 0 1-3.933 4.114 59.108 59.108 0 0 1-9.043 7.04 59 59 0 0 1-5.028 2.854 60 60 0 0 1-5.293 2.375 62.592 62.592 0 0 1-16.992 4.04 63.6 63.6 0 0 1-11.703 0 63 63 0 0 1-11.476-2.168 61 61 0 0 1-5.516-1.872 60 60 0 0 1-5.293-2.375 59 59 0 0 1-5.023-2.855 59 59 0 0 1-9.047-7.04 58 58 0 0 1-3.934-4.112 58 58 0 0 1-3.488-4.461 57 57 0 0 1-3.012-4.766 55 55 0 0 1-2.504-5.023 55 55 0 0 1-1.976-5.227 55 55 0 0 1-1.422-5.39 53.798 53.798 0 0 1-1.148-11.043c0-1.852.097-3.704.288-5.547q.287-2.766.86-5.497a55 55 0 0 1 1.422-5.386 55.2 55.2 0 0 1 4.48-10.25 56 56 0 0 1 3.012-4.766 57 57 0 0 1 3.488-4.46 58.4 58.4 0 0 1 12.98-11.157 62 62 0 0 1 5.024-2.856 61.3 61.3 0 0 1 10.809-4.246 61 61 0 0 1 5.683-1.347 62.8 62.8 0 0 1 17.496-.817c1.946.184 3.875.453 5.793.817q2.877.54 5.684 1.347a61.25 61.25 0 0 1 15.836 7.102 59.126 59.126 0 0 1 9.043 7.04 58 58 0 0 1 3.933 4.116 56.2 56.2 0 0 1 6.504 9.227 57 57 0 0 1 2.504 5.02 55 55 0 0 1 1.973 5.23 54 54 0 0 1 1.422 5.386q.573 2.73.86 5.497c.19 1.843.288 3.695.288 5.546m0 0"/><path fill="#535a63" d="M768.887 395.23c-16.227 0-31.485-5.996-42.965-16.882-11.496-10.903-17.828-25.399-17.828-40.825 0-15.425 6.332-29.925 17.828-40.828 11.476-10.886 26.738-16.882 42.965-16.882 16.23 0 31.488 5.996 42.968 16.882 11.497 10.903 17.829 25.403 17.829 40.828s-6.332 29.922-17.829 40.825c-11.48 10.886-26.738 16.882-42.968 16.882m-59.692-57.707h1.106c0 14.813 6.086 28.743 17.14 39.223 11.067 10.496 25.786 16.277 41.446 16.277s30.379-5.78 41.449-16.277c11.05-10.48 17.137-24.41 17.137-39.223s-6.086-28.742-17.137-39.222c-11.07-10.496-25.79-16.274-41.45-16.274s-30.378 5.778-41.445 16.274c-11.054 10.48-17.14 24.41-17.14 39.222Zm0 0"/><path fill="#7a8593" d="M828.578 337.523c0 30.942-26.18 56.079-58.68 56.594-19.328-9.687-31.171-29.445-34.808-55.394-2.594-18.47.91-38.754 5.933-51.266 8.317-4.172 17.801-6.535 27.864-6.535 32.968 0 59.691 25.34 59.691 56.601m0 0"/><path fill="#535a63" d="M769.898 395.219c-.171 0-.34-.04-.496-.117-9.699-4.86-17.687-12.262-23.73-22-5.895-9.497-9.828-21.012-11.676-34.223-1.215-8.664-1.18-18.402.11-28.168 1.14-8.633 3.23-17.035 5.894-23.664.098-.246.29-.453.527-.574 8.68-4.356 18.489-6.657 28.36-6.657 16.23 0 31.488 5.997 42.968 16.883 11.497 10.903 17.829 25.403 17.829 40.828 0 15.254-6.215 29.637-17.493 40.5-11.25 10.836-26.265 16.942-42.277 17.196h-.016Zm-28.003-106.961c-4.711 11.969-8.278 32.035-5.715 50.312 1.812 12.907 5.636 24.133 11.37 33.368 5.778 9.304 13.38 16.39 22.602 21.07 15.348-.309 29.723-6.188 40.508-16.57 10.84-10.446 16.813-24.262 16.813-38.915 0-14.648-6.086-28.742-17.137-39.222-11.07-10.496-25.79-16.274-41.45-16.274-9.386 0-18.71 2.153-26.991 6.235Zm0 0"/><path fill="#fff" d="M748.32 341.203c-1.074-4.605-4.218-8.18-8.222-9.98l-.496-2.125s-7.907 1.03-8.754 1.23c-7.832 1.82-12.7 9.64-10.88 17.473 1.821 7.828 9.571 12.344 17.473 10.875 2.172-.403 8.758-1.23 8.758-1.23l-.851-3.66a14.54 14.54 0 0 0 2.972-12.583m0 0"/><path fill="#535a63" d="M734.457 360.055c-3.055 0-6.027-.817-8.61-2.39-3.542-2.165-6.015-5.58-6.952-9.618-1.957-8.406 3.293-16.844 11.699-18.797.879-.203 8.05-1.145 8.867-1.25.562-.074 1.09.29 1.219.844l.37 1.605c4.243 2.086 7.27 5.883 8.345 10.5a15.54 15.54 0 0 1-2.852 13.106l.73 3.14c.07.305.008.625-.171.88a1.08 1.08 0 0 1-.766.464c-.066.008-6.578.828-8.695 1.219a17.3 17.3 0 0 1-3.188.297Zm4.297-29.735c-3.031.399-7.137.961-7.656 1.082-7.223 1.68-11.73 8.922-10.055 16.145A13.04 13.04 0 0 0 727 355.78c3.008 1.836 6.645 2.477 10.238 1.805 1.63-.3 5.59-.824 7.606-1.082l-.574-2.469a1.12 1.12 0 0 1 .226-.953c2.703-3.27 3.707-7.508 2.746-11.629-.957-4.121-3.726-7.484-7.597-9.223a1.1 1.1 0 0 1-.622-.757Zm0 0"/><path fill="#fff" d="M757.457 343.27q0 1.434-.281 2.84a14.531 14.531 0 0 1-8.703 10.605q-1.325.551-2.73.828a14.5 14.5 0 0 1-5.68 0 14.2 14.2 0 0 1-2.731-.828 14.3 14.3 0 0 1-2.516-1.344 14.4 14.4 0 0 1-4.015-4.016 14.3 14.3 0 0 1-1.344-2.515 14.2 14.2 0 0 1-.828-2.73 14.4 14.4 0 0 1 0-5.68q.275-1.407.828-2.73c.363-.884.813-1.72 1.344-2.516a14.6 14.6 0 0 1 4.015-4.016 15 15 0 0 1 2.516-1.344q1.325-.545 2.73-.828a14.4 14.4 0 0 1 2.84-.277 14.5 14.5 0 0 1 5.57 1.105q1.323.552 2.516 1.344a14.6 14.6 0 0 1 2.203 1.812q1.015 1.013 1.813 2.204c.531.796.976 1.632 1.344 2.515.367.883.64 1.793.828 2.73q.28 1.409.281 2.84m0 0"/><path fill="#535a63" d="M742.871 358.934c-2.887 0-5.73-.809-8.242-2.372a15.56 15.56 0 0 1-6.977-9.742c-1.957-8.41 3.293-16.843 11.703-18.8 4.07-.946 8.27-.25 11.82 1.957a15.55 15.55 0 0 1 6.977 9.746c.95 4.074.254 8.273-1.957 11.824a15.57 15.57 0 0 1-9.742 6.976c-1.191.274-2.39.41-3.578.41Zm.059-29.118c-1.024 0-2.055.118-3.075.356-7.222 1.683-11.73 8.922-10.05 16.148a13.36 13.36 0 0 0 5.988 8.368 13.35 13.35 0 0 0 10.156 1.683 13.35 13.35 0 0 0 8.371-5.992 13.35 13.35 0 0 0 1.68-10.156 13.36 13.36 0 0 0-5.988-8.368 13.34 13.34 0 0 0-7.082-2.039m0 0"/><path fill="#fff" d="M541.46 563.813s24.935 3.039 43.786-7.907c18.852-10.949 34.66-38.918 46.215-48.652 11.555-9.727 27.367-21.281 32.84-29.797 5.472-8.512 7.297-20.672 7.297-20.672s32.84-16.418 58.984-15.203c26.152 1.215 54.73 20.672 54.73 20.672s-10.34 41.351-13.378 60.812c-3.04 19.461-7.27 49.454-28.551 92.02s-101.18 80.988-101.18 80.988l-16.055-38.281s37.887-23.488 46.657-43.445c10.718-24.387 8.5-51.36 8.5-51.36s-15.18 28.188-40.114 39.133-99.726 16.277-99.726 16.277v-54.586Zm0 0"/><path fill="#535a63" d="M642.203 697.18q-.201 0-.39-.075a1.1 1.1 0 0 1-.63-.605l-16.05-38.281c-.211-.5-.028-1.078.437-1.364.375-.234 37.696-23.539 46.223-42.949 8.176-18.605 8.727-38.965 8.562-47.136a118 118 0 0 1-8.902 12.378c-6.383 7.774-16.738 18.243-29.816 23.98-10.438 4.583-30.465 8.731-59.524 12.333-21.593 2.672-40.383 4.027-40.574 4.039a1.08 1.08 0 0 1-.828-.293c-.227-.21-.352-.5-.352-.809v-54.586a1.102 1.102 0 0 1 1.239-1.097c.246.027 24.797 2.863 43.097-7.766 11.485-6.668 21.801-19.73 30.907-31.258 5.722-7.242 10.664-13.5 15.152-17.28 2.703-2.278 5.574-4.602 8.617-7.06 9.785-7.921 19.906-16.113 24.004-22.488 5.277-8.21 7.117-20.125 7.133-20.242.054-.355.277-.664.601-.824.078-.043 8.403-4.184 19.82-8.113 10.563-3.641 26.028-7.844 39.712-7.207 13.691.636 28.004 6.28 37.597 10.902 10.367 4.996 17.63 9.914 17.703 9.965.38.261.559.73.45 1.18-.106.413-10.36 41.527-13.36 60.714l-.27 1.727c-3.042 19.566-7.644 49.137-28.382 90.617-4.918 9.828-13.34 20.238-25.031 30.934-9.32 8.523-20.73 17.254-33.922 25.949-22.438 14.797-42.54 24.508-42.739 24.605a1.1 1.1 0 0 1-.48.11Zm-14.672-38.953 15.239 36.34c4.394-2.18 22.043-11.153 41.457-23.958 13.09-8.632 24.406-17.293 33.632-25.734 11.489-10.508 19.746-20.695 24.536-30.281 20.59-41.172 25.156-70.54 28.18-89.969l.269-1.73c2.785-17.832 11.785-54.415 13.207-60.149-4.356-2.836-30.125-18.976-53.52-20.062-13.332-.622-28.508 3.507-38.886 7.086-9.692 3.335-17.102 6.816-19.051 7.753-.438 2.563-2.446 12.88-7.364 20.532-4.293 6.675-14.55 14.98-24.476 23.011-3.031 2.45-5.895 4.77-8.582 7.032-4.317 3.636-9.43 10.109-14.84 16.96-9.227 11.68-19.684 24.919-31.535 31.801-9.918 5.762-21.48 7.641-29.438 8.203-6.457.458-11.55.157-13.797-.035v52.18c9.653-.738 75.415-6.102 98.18-16.098 12.68-5.566 22.77-15.777 28.996-23.363 6.77-8.234 10.551-15.215 10.59-15.281.23-.434.719-.66 1.2-.559.476.102.831.504.874.992.02.278.551 6.946-.23 16.715-.723 9.02-2.762 22.446-8.36 35.18-3.707 8.445-12.773 18.414-26.94 29.629-8.743 6.926-16.833 12.203-19.345 13.808Zm0 0"/><path fill="#535a63" d="M681.3 564.09c-.195 0-.394-.05-.577-.16a1.11 1.11 0 0 1-.36-1.524c3.555-5.777 9.09-20.36 9.145-20.504a1.105 1.105 0 0 1 2.066.782c-.23.609-5.664 14.925-9.328 20.882-.207.34-.57.524-.941.524Zm0 0"/><path fill="#fff" d="M666.695 463.027s24.121-12.504 52.371-13.964c36.504-1.887 65.293 22.343 68.786 21.296 3.492-1.046 7.332-23.394 7.332-23.394s53.418-9.426 65.293-18.504c11.87-9.078 55.511-72.973 55.511-72.973l-19.898-22.347s-26.887 26.187-40.852 34.566c-13.968 8.379-52.375 15.711-60.754 13.965-8.379-1.742-40.152-5.586-62.847-4.54-22.696 1.048-34.567 5.938-38.059 8.731-3.496 2.793-11.453 19.614-17.387 37.07-5.937 17.458-9.5 40.09-9.5 40.09Zm0 0"/><path fill="#535a63" d="M787.598 471.5c-1.336 0-3.453-1.137-8.223-3.8-5.672-3.16-14.238-7.946-24.582-11.7-12.293-4.457-24.293-6.422-35.668-5.832-27.695 1.43-51.684 13.719-51.922 13.844-.371.191-.816.16-1.156-.082a1.12 1.12 0 0 1-.445-1.07c.035-.227 3.644-22.926 9.543-40.274 6.023-17.715 13.984-34.57 17.742-37.582 2.277-1.82 6.73-3.723 12.226-5.223 7.399-2.015 16.305-3.277 26.473-3.746 22.27-1.027 54.34 2.73 63.125 4.563 3.883.808 15.324-.5 27.824-3.184 14.031-3.016 26.047-6.996 32.133-10.648 13.7-8.22 40.383-34.153 40.652-34.414.215-.207.508-.32.809-.313.3.012.586.145.789.371l19.902 22.344c.336.379.371.937.086 1.36-1.789 2.613-43.883 64.144-55.758 73.226-11.312 8.648-58.18 17.348-65.015 18.582-.313 1.734-1.145 6.156-2.235 10.613-2.593 10.617-4.351 12.473-5.73 12.887-.176.05-.363.078-.57.078m-64.508-23.645c10.445 0 21.344 2.036 32.453 6.07 10.512 3.813 19.176 8.65 24.906 11.848 3.086 1.72 6.274 3.5 7.114 3.52.261-.145 1.785-1.387 4.222-11.414 1.356-5.567 2.3-11.04 2.309-11.098a1.11 1.11 0 0 1 .898-.898c.531-.094 53.29-9.485 64.813-18.297 10.925-8.356 49.957-64.973 54.785-72.008l-18.559-20.84c-4.71 4.543-27.52 26.293-40.222 33.918-9.063 5.434-25.965 9.442-32.809 10.914-12.969 2.785-24.52 4.067-28.738 3.188-8.703-1.817-40.489-5.54-62.574-4.52-22.458 1.035-34.09 5.825-37.418 8.489-2.993 2.39-10.72 17.996-17.032 36.566-4.793 14.098-8.066 31.809-9.101 37.809 6.336-2.961 27.293-11.922 50.875-13.145q2.026-.103 4.078-.102m0 0"/><path fill="#becee2" d="M659.602 482.805c6.105 5.863 40.062 5.218 49.363-.04 9.297-5.253 29.91-84.28 29.91-88.222 0-3.938-42.848-3.941-54.977-2.73-12.128 1.214-20.214 16.171-28.699 42.445-8.492 26.277.875 45.164 4.403 48.55Zm0 0"/><path fill="#535a63" d="M682.277 488.063c-5.336 0-19.215-.403-23.441-4.461-2.219-2.133-5.363-8.133-7.024-16.266-1.496-7.324-2.304-19.063 2.336-33.418 4.633-14.344 8.797-24.156 13.106-30.879 4.918-7.676 10.328-11.707 16.535-12.328 6.074-.606 19.145-.871 30.402-.617 6.364.148 11.899.449 16.008.87 6.688.692 8.39 1.552 9.133 2.22.54.488.652 1.007.652 1.359 0 2.242-5.273 23.262-11.52 43.937-3.605 11.938-6.929 21.778-9.874 29.247-2.371 6.003-5.895 14.203-9.082 16.003-5.453 3.082-17.633 4.258-26.41 4.332-.246 0-.52.004-.82.004Zm-21.914-6.055c2.528 2.426 11.446 3.933 22.715 3.844 11.035-.09 21.223-1.72 25.34-4.047 1.687-.95 6.809-7.14 17.93-43.961 6.398-21.176 11.129-40.45 11.41-43.102-1.028-.762-6.91-2.043-23.297-2.43-11.277-.269-24.371-.011-30.453.598-5.492.55-10.363 4.25-14.895 11.32-4.203 6.56-8.293 16.207-12.867 30.364-4.492 13.902-3.715 25.234-2.273 32.297 1.664 8.136 4.8 13.59 6.39 15.117m0 0"/><path fill="#becee2" d="M738.875 394.543c-8.098-3.844-14.254-.39-21.3 7.227-7.048 7.617-20.833 51.289-21.141 63.847-.305 12.559 6.14 17.68 12.527 17.153 9.726-.805 16.66-30.192 22.785-47.348 6.129-17.152 10.82-39.125 7.129-40.875Zm0 0"/><path fill="#535a63" d="M708.074 483.91c-2.91 0-5.644-1.086-7.789-3.105-2.375-2.243-5.16-6.7-4.953-15.215.309-12.707 14.207-56.762 21.434-64.57 3.984-4.305 7.375-6.91 10.664-8.192 3.851-1.496 7.75-1.262 11.922.719 1.464.691 3.132 3.094.73 15.863-1.484 7.895-4.21 17.758-7.293 26.383-1.258 3.523-2.543 7.539-3.902 11.793-5.594 17.492-11.38 35.582-19.832 36.281q-.497.041-.98.04Zm24.43-89.836c-4.45 0-8.79 2.688-14.117 8.446-3.063 3.312-7.989 14.68-12.856 29.664-4.64 14.277-7.851 27.726-7.988 33.464-.188 7.704 2.21 11.622 4.262 13.551a9.06 9.06 0 0 0 7.066 2.469c2.969-.242 6.156-4.035 9.473-11.266 3.078-6.71 5.8-15.238 8.441-23.488 1.363-4.27 2.653-8.3 3.926-11.863 3.047-8.524 5.738-18.262 7.203-26.047 2.3-12.23.512-13.453.492-13.461-2.043-.969-3.98-1.469-5.898-1.469Zm0 0"/><path fill="#becee2" d="M884.992 339.473s8.028 6.968 12.883 12.668c4.855 5.703 13.305 15.418 13.305 15.418s9.504-8.45 11.613-9.504c2.113-1.059 9.715-4.012 17.742-9.926 8.024-5.914 15.836-20.274 15.836-24.074 0-3.805-4.644-9.926-8.445-17.32-3.801-7.391-14.422-18.215-16.32-19.485-1.903-1.266-17.094 19.844-17.094 19.844l-7.899-11.29s-8.105 10.087-10.426 16.212c-2.324 6.125-3.23 15.293-3.437 16.59-.215 1.296-7.754 10.863-7.754 10.863Zm0 0"/><path fill="#535a63" d="M911.18 368.664q-.036.001-.07-.004a1.09 1.09 0 0 1-.762-.375c-.082-.098-8.508-9.785-13.313-15.426-4.746-5.574-12.683-12.484-12.765-12.55a1.11 1.11 0 0 1-.145-1.52c3.453-4.379 7.195-9.437 7.535-10.398.031-.184.074-.532.13-.965.362-2.86 1.335-10.45 3.362-15.797 2.356-6.215 10.262-16.094 10.598-16.512.219-.27.55-.426.898-.41.348.008.668.184.868.469l7.011 10.02a321 321 0 0 1 6.95-9.176c2.363-3 4.328-5.336 5.847-6.954 2.192-2.332 3.696-3.527 4.89-2.73 2.056 1.371 12.747 12.23 16.692 19.898 1.223 2.38 2.512 4.586 3.758 6.72 2.688 4.605 4.813 8.237 4.813 11.105 0 4.53-8.375 19.128-16.29 24.96-6.726 4.958-13.238 7.903-16.367 9.317-.664.3-1.183.535-1.535.71-1.453.727-7.597 5.985-11.37 9.34-.208.18-.466.278-.735.278m-24.672-29.332c2.152 1.91 8.191 7.379 12.21 12.094 3.966 4.656 10.407 12.082 12.563 14.566 2.473-2.176 9.149-7.988 11.02-8.922.386-.195.926-.437 1.61-.75 3.062-1.382 9.433-4.261 15.968-9.078 7.906-5.824 15.39-19.96 15.39-23.183 0-2.266-2.09-5.848-4.511-9.993-1.2-2.058-2.563-4.39-3.813-6.82-3.472-6.75-13.187-16.883-15.652-18.848-1.902 1.102-8.691 9.356-15.883 19.344-.21.29-.55.45-.906.457-.356 0-.692-.176-.895-.469l-7.043-10.066c-2.164 2.809-7.566 10.059-9.343 14.746-1.938 5.106-2.883 12.508-3.239 15.293-.062.504-.109.871-.144 1.082-.067.406-.176 1.078-4.164 6.406a261 261 0 0 1-3.168 4.141m5.148-10.902"/><path fill="#becee2" d="M646.05 636.188s-17.687 14.43-20.945 16.054c-3.257 1.63-8.855 3.313-16.007 6.356-5.79 2.468-8.239 5.578-8.239 5.578s-1.394 46.144-1.777 59.836c-.379 13.695-7.297 56.105-7.297 56.867 0 .766 13.832 1.828 19.77-.734 11.332-4.895 20.472-21.676 22.93-29.09 3.202-9.664 10.355-32.11 11.566-39.211 1.207-7.102 11.347-14.453 16.039-17.239 4.691-2.789 10.777-5.199 12.043-5.96 1.27-.758 2.539-15.465-1.649-26.622-4.183-11.156-16.613-27.457-26.433-25.836m0 0"/><g clip-path="url(#d)"><path fill="#535a63" d="M599.86 782.875c-4.15 0-7.77-.422-8.602-.969-.367-.238-.578-.613-.578-1.023 0-.215.082-.766.78-5.356 1.86-12.195 6.22-40.75 6.52-51.543.375-13.535 1.758-59.375 1.774-59.836.008-.238.09-.464.234-.652.11-.137 2.696-3.363 8.676-5.91 3.527-1.5 6.617-2.652 9.344-3.664 2.789-1.04 4.992-1.86 6.601-2.664 2.582-1.293 15.848-11.934 20.739-15.926.152-.121.328-.203.52-.234 3.37-.555 8.937.46 16.323 8.468 4.73 5.13 9.07 12.051 11.329 18.07 2.476 6.606 2.902 13.856 2.937 17.587.02 2.449-.105 4.816-.367 6.668-.383 2.754-.895 3.406-1.39 3.703-.493.297-1.505.758-2.903 1.39-2.442 1.11-6.129 2.782-9.145 4.575-1.168.695-5.289 3.246-9.132 6.859-3.696 3.469-5.903 6.793-6.383 9.617-1.203 7.055-8.117 28.84-11.606 39.371-2.37 7.164-11.593 24.598-23.539 29.754-2.914 1.258-7.812 1.719-12.137 1.719Zm-6.868-2.687c2.82.582 13.297 1.027 18.13-1.06 10.64-4.593 19.788-20.776 22.32-28.421 4.03-12.176 10.43-32.621 11.519-39.047 1.5-8.82 15.027-17.094 16.566-18.004 3.118-1.855 6.875-3.558 9.36-4.687 1.101-.496 2.066-.934 2.535-1.188.828-1.715 1.984-14.824-1.969-25.367-4.078-10.871-16.027-26.285-24.941-25.176-2.207 1.797-17.754 14.414-20.91 15.996-1.72.856-3.97 1.696-6.82 2.758-2.704 1.004-5.77 2.145-9.25 3.625-4.477 1.906-6.872 4.23-7.579 4.992-.14 4.547-1.406 46.575-1.765 59.434-.301 10.93-4.676 39.578-6.543 51.812-.282 1.856-.524 3.438-.657 4.332Zm0 0"/></g><path fill="#becee2" d="M567.738 556.688s5.418 9.308 7.707 22.875c2.29 13.566-2.453 39.878-4.742 41.351s-34.652 3.922-36.45 4.742c-1.8.817-9.48 11.278-17.816 25.168-8.335 13.895-18.636 20.106-24.843 21.086-6.215.98-20.922-2.777-20.922-2.777l27.832-114.36s8.7-3 17.933-2.18c6.922.614 22.555 3.923 29.583 4.903 7.03.98 21.718-.805 21.718-.805Zm0 0"/><path fill="#535a63" d="M489.148 673.176c-7.02 0-18.214-2.836-18.75-2.973a1.107 1.107 0 0 1-.8-1.332l27.832-114.36c.09-.363.36-.66.715-.78.363-.126 9.027-3.067 18.39-2.239 4.164.371 11.211 1.66 18.024 2.906 4.52.829 8.789 1.61 11.617 2.004 6.804.953 21.285-.793 21.43-.808.437-.055.863.156 1.085.539.227.387 5.547 9.637 7.844 23.246 1.442 8.562.024 20.723-.652 25.547-.578 4.133-1.317 8.07-2.078 11.086-1.278 5.043-2.106 5.578-2.504 5.832-1.336.86-7.918 1.656-23.137 3.222-5.89.606-12.562 1.293-13.46 1.598-1.306.684-8.177 9.492-17.317 24.727-8.59 14.32-19.172 20.59-25.621 21.609-.766.121-1.653.172-2.618.172Zm-17.14-4.856c3.453.825 14.441 3.285 19.414 2.5 8.953-1.414 18.539-11.347 24.07-20.562 7.012-11.684 15.778-24.457 18.309-25.61.836-.378 4.543-.789 14.14-1.777 8.204-.848 20.563-2.117 22.141-2.871.762-.863 2.438-6.77 3.68-15.852 1.34-9.8 1.554-18.695.593-24.402-1.894-11.23-6.011-19.582-7.23-21.875-3.113.356-14.996 1.594-21.254.719-2.879-.403-7.168-1.184-11.707-2.02-6.453-1.18-13.762-2.515-17.824-2.879-7.559-.668-14.86 1.325-16.906 1.95Zm98.043-48.293"/><path fill="#7a8593" d="M470.672 669.133c6.504 1.402 17.793-13.7 25.547-35.727 7.246-20.597 12.761-56.902 11.12-65.785-1.636-8.883-2.94-11.664-8.835-12.844-5.89-1.18-10.8 3.028-15.008 11.91s-16.441 40.598-19.133 62.743c-1.965 16.16-1.89 37.933 6.309 39.703m0 0"/><path fill="#535a63" d="M471.516 670.324c-.368 0-.727-.035-1.075-.113-11.265-2.43-7.953-34.508-7.175-40.914 2.773-22.8 15.246-54.668 19.234-63.086 2.227-4.7 4.574-8.008 7.176-10.113 2.773-2.246 5.816-3.055 9.047-2.407 6.777 1.356 8.101 5.036 9.707 13.73 1.687 9.177-3.903 45.704-11.168 66.349-7.504 21.324-18.328 36.554-25.75 36.554Zm25.097-114.636c-4.492 0-8.468 3.773-12.117 11.472-4.531 9.57-16.445 41.117-19.035 62.403-1.113 9.167-1.352 18.277-.652 25 .843 8.148 2.953 12.812 6.097 13.488.211.047.426.07.656.07 5.563 0 16.047-13.578 23.618-35.082 3.312-9.422 6.539-22.941 8.843-37.098 2.114-12.972 2.993-24.011 2.235-28.117-1.668-9.058-2.934-10.957-7.969-11.965a8.5 8.5 0 0 0-1.676-.172m0 0"/><path fill="#7a8593" d="M591.785 780.879c9.172 1.121 17.297-12.43 21.774-30.168 4.476-17.738 4.82-48.91 2.066-64.758-2.754-15.844-10.586-21.512-14.766-21.777-4.175-.266-12.789 7.898-15.718 24.879-2.09 12.117-6.028 46.156-4.993 63.722 1.032 17.567 4.5 27.235 11.637 28.102m0 0"/><g clip-path="url(#e)"><path fill="#535a63" d="M592.836 782.05c-.395 0-.79-.027-1.184-.073-3.914-.477-6.937-3.329-8.996-8.477-1.886-4.719-3.07-11.477-3.61-20.656-1.003-17.098 2.727-50.739 5.009-63.977 1.687-9.785 5.058-15.933 7.59-19.37 3.085-4.196 6.558-6.595 9.285-6.423 2.785.176 6.039 2.215 8.699 5.45 3.39 4.113 5.84 10.078 7.086 17.242 2.77 15.922 2.465 47.191-2.082 65.214-2.34 9.262-5.551 17.047-9.285 22.512-3.848 5.625-8.149 8.559-12.508 8.559Zm7.82-116.773c-1.597 0-4.406 1.684-7.234 5.524-2.39 3.246-5.574 9.082-7.192 18.441-4.265 24.742-5.507 54.469-4.98 63.469.527 8.941 1.656 15.473 3.453 19.969 1.762 4.402 4.121 6.726 7.215 7.105.297.035.598.05.894.055 7.477 0 15.118-11.344 19.676-29.399 4.485-17.761 4.782-48.593 2.051-64.296-1.492-8.575-4.422-13.551-6.613-16.215-2.688-3.266-5.446-4.543-7.133-4.649-.047-.004-.09-.004-.137-.004m0 0"/></g><path fill="#535a63" d="M833.074 438.988q-.04.001-.086-.004a1.106 1.106 0 0 1-1.015-1.187c.05-.613 1.297-15.156 11.586-23.86 9.66-8.171 18.836-9.855 24.832-9.824 6.539.035 10.757 2.016 10.933 2.098a1.107 1.107 0 1 1-.957 1.996c-.035-.02-4.027-1.875-10.105-1.883-5.606-.012-14.18 1.598-23.278 9.297-9.597 8.117-10.8 22.207-10.812 22.348a1.11 1.11 0 0 1-1.102 1.02ZM928.848 308.992c-.211 0-.422-.058-.61-.18a1.106 1.106 0 0 1-.308-1.53l9.355-14.137a1.106 1.106 0 0 1 1.531-.313c.508.336.645 1.023.309 1.531L929.77 308.5c-.211.32-.563.492-.922.492M935.672 317.281a1.106 1.106 0 0 1-.918-1.715l9.355-14.132a1.107 1.107 0 0 1 1.532-.313c.507.336.648 1.024.312 1.531l-9.355 14.137c-.215.32-.563.492-.922.492ZM944.11 325.574c-.212 0-.426-.062-.614-.187a1.1 1.1 0 0 1-.305-1.532l7.75-11.613a1.1 1.1 0 0 1 1.532-.305c.507.336.644 1.024.304 1.532l-7.75 11.613c-.21.32-.562.492-.918.492m0 0"/></svg>